<svg id="svg" xmlns="http://www.w3.org/2000/svg" xmlns:xlink="http://www.w3.org/1999/xlink" width="400" height="436.82539682539687" viewBox="0, 0, 400,436.82539682539687"><g id="svgg"><path id="path0" d="M68.800 190.402 L 68.800 237.982 69.700 238.557 C 70.195 238.873,72.670 240.288,75.200 241.701 C 79.670 244.197,88.159 248.966,91.400 250.802 C 92.280 251.301,93.990 252.245,95.200 252.901 C 96.410 253.556,98.390 254.646,99.600 255.322 C 105.364 258.541,111.218 261.808,117.800 265.480 C 121.760 267.689,125.720 269.903,126.600 270.401 C 127.480 270.899,130.810 272.750,134.000 274.516 C 137.190 276.283,142.893 279.481,146.673 281.623 C 151.989 284.637,153.597 285.385,153.773 284.927 C 154.114 284.038,154.034 191.073,153.692 190.535 C 153.402 190.079,149.221 187.615,142.600 183.999 C 139.651 182.389,130.643 177.366,123.800 173.516 C 120.500 171.659,116.579 169.473,115.088 168.657 C 113.596 167.840,111.706 166.795,110.888 166.334 C 110.069 165.872,107.060 164.190,104.200 162.596 C 100.003 160.256,87.205 153.076,77.760 147.764 C 76.858 147.257,75.283 146.382,74.260 145.821 C 73.237 145.259,71.590 144.355,70.600 143.811 L 68.800 142.823 68.800 190.402 M239.600 190.962 L 239.600 238.324 241.300 239.316 C 243.062 240.345,244.139 240.951,248.200 243.197 C 249.520 243.927,252.670 245.687,255.200 247.109 C 261.840 250.839,270.253 255.533,272.800 256.929 C 274.010 257.591,278.510 260.106,282.800 262.516 C 289.143 266.080,308.738 277.043,315.800 280.979 C 320.729 283.726,323.499 285.200,323.734 285.200 C 323.880 285.200,324.000 263.800,324.000 237.644 L 324.000 190.088 322.300 189.253 C 321.365 188.794,319.700 187.903,318.600 187.273 C 316.115 185.849,303.825 178.962,300.650 177.214 C 299.358 176.503,297.413 175.397,296.328 174.757 C 294.406 173.624,291.269 171.888,286.800 169.485 C 285.590 168.834,283.430 167.628,282.000 166.806 C 280.570 165.983,278.500 164.814,277.400 164.208 C 275.274 163.036,260.093 154.528,257.400 153.000 C 254.765 151.504,253.137 150.601,250.400 149.117 C 247.706 147.656,245.487 146.415,242.400 144.643 C 241.410 144.075,240.375 143.607,240.100 143.605 C 239.703 143.601,239.600 153.336,239.600 190.962 " stroke="none" fill="#fafbfb" fill-rule="evenodd"></path><path id="path1" d="M68.898 94.832 L 69.000 142.458 71.000 143.557 C 72.100 144.162,74.221 145.325,75.712 146.142 C 77.204 146.959,79.094 148.006,79.912 148.468 C 80.731 148.930,82.030 149.656,82.800 150.082 C 83.570 150.508,84.920 151.263,85.800 151.760 C 86.680 152.257,88.390 153.211,89.600 153.878 C 90.810 154.545,92.520 155.499,93.400 155.998 C 95.352 157.104,103.890 161.882,106.494 163.327 C 107.536 163.905,109.874 165.221,111.689 166.251 C 113.504 167.280,115.802 168.570,116.795 169.115 C 117.788 169.661,119.320 170.525,120.200 171.035 C 121.080 171.546,122.430 172.276,123.200 172.658 C 123.970 173.041,125.230 173.742,126.000 174.218 C 126.770 174.693,129.020 175.947,131.000 177.004 C 132.980 178.061,134.660 179.077,134.733 179.263 C 134.807 179.448,135.038 179.600,135.247 179.600 C 135.457 179.600,137.064 180.415,138.819 181.411 C 140.575 182.407,142.774 183.642,143.706 184.156 C 144.638 184.669,146.480 185.684,147.800 186.410 C 152.331 188.903,153.001 189.286,153.400 189.609 C 153.666 189.824,153.766 174.005,153.697 142.265 L 153.594 94.599 150.321 92.799 C 143.406 88.997,142.536 88.516,140.400 87.317 C 139.190 86.638,137.570 85.749,136.800 85.341 C 136.030 84.934,135.310 84.510,135.200 84.400 C 135.090 84.290,134.370 83.862,133.600 83.448 C 132.226 82.710,131.205 82.150,126.800 79.721 C 121.510 76.802,120.577 76.276,120.200 75.997 C 119.980 75.834,118.630 75.073,117.200 74.305 C 114.562 72.889,113.818 72.473,108.314 69.351 C 106.617 68.388,105.114 67.600,104.976 67.600 C 104.837 67.600,104.246 67.261,103.662 66.847 C 103.078 66.433,101.520 65.508,100.200 64.793 C 96.646 62.866,95.157 62.039,93.600 61.126 C 92.830 60.674,90.670 59.487,88.800 58.488 C 86.930 57.488,84.729 56.250,83.908 55.735 C 83.087 55.221,82.345 54.800,82.258 54.800 C 82.172 54.800,80.076 53.630,77.600 52.200 C 75.124 50.770,73.007 49.600,72.894 49.600 C 72.781 49.600,71.813 49.061,70.743 48.403 L 68.797 47.205 68.898 94.832 M238.800 94.701 L 238.800 142.201 240.700 143.200 C 241.745 143.750,244.040 145.022,245.800 146.027 C 247.560 147.033,250.221 148.524,251.712 149.341 C 253.204 150.159,255.004 151.153,255.712 151.551 C 256.421 151.948,258.204 152.924,259.676 153.719 C 263.508 155.788,264.104 156.140,264.713 156.700 C 265.012 156.975,265.418 157.200,265.614 157.200 C 265.811 157.200,267.733 158.217,269.886 159.461 C 272.039 160.705,275.150 162.443,276.800 163.323 C 278.450 164.204,279.891 165.031,280.001 165.162 C 280.112 165.293,280.922 165.780,281.801 166.245 C 282.681 166.710,284.570 167.723,286.000 168.496 C 287.430 169.269,289.230 170.239,290.000 170.651 C 290.770 171.063,291.490 171.490,291.600 171.600 C 291.710 171.710,292.430 172.134,293.200 172.541 C 295.214 173.607,298.803 175.613,300.200 176.453 C 300.860 176.850,302.120 177.543,303.000 177.994 C 303.880 178.445,304.870 178.984,305.200 179.191 C 305.530 179.398,307.288 180.390,309.106 181.395 C 315.315 184.827,316.201 185.328,317.600 186.193 C 318.370 186.669,319.270 187.181,319.600 187.331 C 319.930 187.480,321.100 188.115,322.200 188.742 L 324.200 189.881 324.000 142.256 L 323.800 94.631 322.600 94.015 C 321.940 93.677,321.310 93.306,321.200 93.192 C 321.090 93.077,320.550 92.768,320.000 92.505 C 319.450 92.242,317.740 91.295,316.200 90.402 C 314.660 89.509,313.040 88.601,312.600 88.384 C 312.160 88.167,311.170 87.611,310.400 87.147 C 309.630 86.684,307.470 85.491,305.600 84.497 C 303.730 83.503,302.020 82.557,301.800 82.394 C 301.382 82.085,288.608 74.929,282.000 71.303 C 281.450 71.001,280.280 70.345,279.400 69.845 C 278.520 69.345,276.810 68.389,275.600 67.721 C 274.390 67.053,272.770 66.124,272.000 65.657 C 271.230 65.189,270.330 64.679,270.000 64.524 C 269.670 64.368,268.320 63.629,267.000 62.881 C 264.570 61.504,262.273 60.229,258.100 57.937 C 256.835 57.242,255.129 56.252,254.308 55.737 C 253.487 55.222,252.719 54.800,252.600 54.800 C 252.481 54.800,251.713 54.382,250.892 53.871 C 249.559 53.041,244.007 49.999,241.108 48.510 C 240.507 48.202,239.912 47.781,239.784 47.575 C 238.893 46.132,238.800 50.562,238.800 94.701 M238.300 238.665 C 238.696 238.825,238.800 248.662,238.800 285.971 C 238.800 330.352,238.840 333.109,239.500 333.638 C 240.280 334.264,240.573 334.433,245.049 336.832 C 246.782 337.761,248.399 338.674,248.642 338.861 C 248.885 339.048,249.965 339.668,251.042 340.238 C 256.265 343.004,257.014 343.416,257.200 343.623 C 257.310 343.746,259.920 345.234,263.000 346.929 C 266.080 348.625,269.860 350.734,271.400 351.617 C 272.940 352.500,274.646 353.408,275.192 353.636 C 275.737 353.864,276.278 354.174,276.392 354.325 C 276.507 354.476,277.230 354.937,278.000 355.349 C 282.906 357.975,288.519 361.097,298.800 366.916 C 299.570 367.352,301.190 368.243,302.400 368.897 C 303.610 369.550,304.780 370.222,305.000 370.390 C 305.220 370.557,307.020 371.559,309.000 372.616 C 310.980 373.673,313.271 374.957,314.092 375.469 C 314.913 375.981,315.670 376.400,315.774 376.400 C 315.879 376.400,316.918 376.966,318.082 377.657 C 320.450 379.062,323.645 380.800,323.860 380.800 C 324.329 380.800,323.958 286.304,323.486 285.871 C 323.204 285.612,321.989 284.878,320.786 284.240 C 319.584 283.602,316.620 281.961,314.200 280.595 C 311.780 279.228,308.540 277.433,307.000 276.605 C 305.460 275.778,304.020 274.964,303.800 274.798 C 303.580 274.631,302.410 273.963,301.200 273.313 C 295.983 270.512,293.115 268.919,288.652 266.342 C 286.040 264.834,283.834 263.600,283.748 263.600 C 283.663 263.600,281.878 262.610,279.782 261.400 C 277.686 260.190,275.884 259.200,275.778 259.200 C 275.671 259.200,274.913 258.778,274.092 258.263 C 272.624 257.341,270.343 256.055,266.000 253.700 C 262.254 251.669,259.861 250.311,258.308 249.336 C 257.487 248.821,256.730 248.400,256.626 248.400 C 256.387 248.400,240.885 239.681,239.811 238.942 C 239.377 238.644,238.747 238.414,238.411 238.432 C 238.000 238.453,237.963 238.529,238.300 238.665 M68.800 286.153 L 68.800 333.506 71.229 334.953 C 72.564 335.749,73.743 336.400,73.847 336.400 C 73.951 336.400,76.720 337.930,80.000 339.800 C 83.280 341.670,86.079 343.200,86.220 343.200 C 86.361 343.200,86.954 343.532,87.538 343.938 C 88.509 344.613,90.080 345.497,96.400 348.923 C 97.610 349.579,98.780 350.250,99.000 350.415 C 99.220 350.580,100.660 351.389,102.200 352.213 C 103.740 353.036,107.647 355.215,110.882 357.055 C 114.117 358.895,116.859 360.400,116.975 360.400 C 117.091 360.400,118.314 361.079,119.693 361.908 C 121.072 362.737,122.875 363.768,123.700 364.199 C 124.525 364.630,125.200 365.121,125.200 365.291 C 125.200 365.461,125.438 365.600,125.729 365.600 C 126.203 365.600,127.792 366.424,132.347 369.032 C 133.146 369.490,134.790 370.411,136.000 371.079 C 137.210 371.747,138.830 372.675,139.600 373.142 C 140.370 373.608,141.360 374.152,141.800 374.350 C 142.240 374.548,145.009 376.081,147.954 377.755 C 150.899 379.430,153.374 380.800,153.456 380.800 C 153.537 380.800,153.558 359.440,153.502 333.332 L 153.400 285.864 151.800 284.996 C 148.970 283.460,146.709 282.204,141.502 279.271 C 138.698 277.692,136.309 276.400,136.194 276.400 C 136.079 276.400,135.313 275.978,134.492 275.463 C 132.764 274.378,128.742 272.120,127.000 271.257 C 126.340 270.930,125.710 270.559,125.600 270.431 C 125.371 270.166,125.084 270.005,120.200 267.395 C 118.220 266.336,115.929 265.050,115.108 264.535 C 114.287 264.021,113.545 263.600,113.459 263.600 C 113.373 263.600,111.524 262.592,109.351 261.360 C 103.423 257.998,102.256 257.343,96.600 254.197 C 93.740 252.606,90.731 250.928,89.912 250.466 C 89.094 250.005,87.204 248.964,85.712 248.152 C 84.221 247.341,82.522 246.345,81.938 245.938 C 81.354 245.532,80.761 245.200,80.620 245.200 C 80.479 245.200,77.838 243.760,74.751 242.000 C 71.664 240.240,69.062 238.800,68.969 238.800 C 68.876 238.800,68.800 260.109,68.800 286.153 " stroke="none" fill="#83d4d4" fill-rule="evenodd"></path><path id="path2" d="M68.498 190.439 L 68.600 238.477 72.400 240.669 C 74.490 241.875,77.550 243.586,79.200 244.471 C 80.850 245.356,82.380 246.216,82.600 246.382 C 82.820 246.548,84.221 247.346,85.712 248.156 C 87.204 248.965,89.094 250.005,89.912 250.466 C 90.731 250.928,93.740 252.606,96.600 254.197 C 102.256 257.343,103.423 257.998,109.351 261.360 C 111.524 262.592,113.373 263.600,113.459 263.600 C 113.545 263.600,114.287 264.021,115.108 264.535 C 115.929 265.050,118.220 266.336,120.200 267.395 C 125.084 270.005,125.371 270.166,125.600 270.431 C 125.710 270.559,126.340 270.930,127.000 271.257 C 128.742 272.120,132.764 274.378,134.492 275.463 C 135.313 275.978,136.079 276.400,136.194 276.400 C 136.309 276.400,138.698 277.692,141.502 279.271 C 153.981 286.299,153.602 286.116,154.351 285.480 C 154.708 285.177,156.260 284.239,157.800 283.395 C 159.340 282.552,161.230 281.507,162.000 281.074 C 167.937 277.734,173.753 274.495,175.600 273.499 C 176.810 272.846,179.330 271.448,181.200 270.392 C 195.420 262.361,200.431 259.600,200.788 259.600 C 201.014 259.600,201.200 259.441,201.200 259.247 C 201.200 259.052,201.515 258.793,201.900 258.670 C 202.285 258.548,203.680 257.836,205.000 257.088 C 206.320 256.340,210.640 253.925,214.600 251.721 C 218.560 249.518,222.520 247.305,223.400 246.805 C 224.280 246.304,226.530 245.042,228.400 244.000 C 233.560 241.125,234.844 240.400,236.760 239.281 C 238.493 238.270,238.538 238.265,239.760 238.969 C 244.640 241.785,256.471 248.400,256.626 248.400 C 256.730 248.400,257.487 248.821,258.308 249.336 C 259.861 250.311,262.254 251.669,266.000 253.700 C 270.343 256.055,272.624 257.341,274.092 258.263 C 274.913 258.778,275.671 259.200,275.778 259.200 C 275.884 259.200,277.686 260.190,279.782 261.400 C 281.878 262.610,283.663 263.600,283.748 263.600 C 283.834 263.600,286.040 264.834,288.652 266.342 C 293.115 268.919,295.983 270.512,301.200 273.313 C 302.410 273.963,303.580 274.631,303.800 274.798 C 304.020 274.964,305.460 275.778,307.000 276.605 C 308.540 277.433,311.780 279.228,314.200 280.595 C 316.620 281.961,319.590 283.602,320.800 284.240 C 322.010 284.878,323.060 285.535,323.133 285.700 C 323.207 285.865,323.522 286.000,323.835 286.000 C 324.323 286.000,324.389 279.249,324.302 237.939 L 324.200 189.878 322.200 188.741 C 321.100 188.115,319.930 187.481,319.600 187.331 C 319.270 187.181,318.370 186.669,317.600 186.193 C 316.201 185.328,315.315 184.827,309.106 181.395 C 307.288 180.390,305.530 179.398,305.200 179.191 C 304.870 178.984,303.880 178.445,303.000 177.994 C 302.120 177.543,300.860 176.850,300.200 176.453 C 299.540 176.056,297.920 175.134,296.600 174.404 C 295.280 173.673,293.789 172.809,293.288 172.484 C 292.786 172.158,292.284 171.982,292.174 172.093 C 291.997 172.269,295.431 174.332,301.200 177.516 C 304.137 179.136,316.438 186.034,318.600 187.273 C 319.700 187.903,321.365 188.794,322.300 189.253 L 324.000 190.088 324.000 237.644 C 324.000 263.800,323.880 285.200,323.734 285.200 C 323.499 285.200,320.729 283.726,315.800 280.979 C 308.738 277.043,289.143 266.080,282.800 262.516 C 278.510 260.106,274.010 257.591,272.800 256.929 C 270.253 255.533,261.840 250.839,255.200 247.109 C 252.670 245.687,249.520 243.927,248.200 243.197 C 244.139 240.951,243.062 240.345,241.300 239.316 L 239.600 238.324 239.600 190.962 C 239.600 153.336,239.703 143.601,240.100 143.605 C 240.375 143.607,241.410 144.075,242.400 144.643 C 245.487 146.415,247.706 147.656,250.400 149.117 C 253.137 150.601,254.765 151.504,257.400 153.000 C 260.520 154.771,275.832 163.352,277.900 164.488 C 279.055 165.123,279.998 165.497,279.997 165.321 C 279.995 165.144,278.780 164.370,277.297 163.600 C 275.813 162.830,273.496 161.540,272.146 160.732 C 270.796 159.925,268.546 158.675,267.146 157.954 C 265.746 157.233,264.510 156.543,264.400 156.422 C 264.173 156.170,263.447 155.754,259.676 153.719 C 258.204 152.924,256.460 151.972,255.800 151.602 C 255.140 151.233,253.520 150.335,252.200 149.607 C 250.880 148.879,248.360 147.470,246.600 146.475 C 239.142 142.261,239.105 142.244,238.636 142.861 C 238.255 143.363,234.699 145.444,227.800 149.202 C 226.700 149.801,225.080 150.702,224.200 151.203 C 223.320 151.705,219.630 153.769,216.000 155.791 C 210.611 158.792,193.987 168.109,188.000 171.484 C 187.230 171.919,185.430 172.908,184.000 173.682 C 182.570 174.457,180.680 175.499,179.800 175.998 C 172.351 180.220,157.825 188.347,156.279 189.158 C 154.620 190.028,154.244 190.095,153.524 189.645 C 152.456 188.978,150.706 187.996,147.312 186.159 C 145.821 185.352,144.429 184.536,144.220 184.346 C 144.011 184.156,143.660 184.000,143.440 184.000 C 142.805 184.000,143.593 184.589,146.000 185.912 C 151.281 188.815,153.413 190.097,153.691 190.533 C 154.034 191.073,154.115 284.035,153.773 284.927 C 153.597 285.385,151.989 284.637,146.673 281.623 C 142.893 279.481,137.190 276.283,134.000 274.516 C 130.810 272.750,127.480 270.899,126.600 270.401 C 125.720 269.903,121.760 267.689,117.800 265.480 C 111.218 261.808,105.364 258.541,99.600 255.322 C 98.390 254.646,96.410 253.556,95.200 252.901 C 93.990 252.245,92.280 251.301,91.400 250.802 C 88.159 248.966,79.670 244.197,75.200 241.701 C 72.670 240.288,70.195 238.873,69.700 238.557 L 68.800 237.982 68.800 190.342 C 68.800 152.290,68.901 142.780,69.300 143.089 C 69.910 143.561,71.200 144.042,71.200 143.798 C 71.200 143.604,68.976 142.400,68.618 142.400 C 68.496 142.400,68.443 164.017,68.498 190.439 M72.200 144.637 C 72.640 144.973,73.810 145.661,74.800 146.166 C 75.790 146.670,77.320 147.495,78.200 147.997 C 80.601 149.369,98.266 159.287,104.200 162.596 C 107.060 164.190,110.069 165.872,110.888 166.334 C 111.706 166.795,113.596 167.840,115.088 168.657 C 116.579 169.473,120.500 171.661,123.800 173.519 C 133.930 179.224,134.800 179.685,134.797 179.337 C 134.795 179.152,133.580 178.370,132.097 177.600 C 130.613 176.830,128.320 175.561,127.000 174.780 C 125.680 173.999,123.970 173.046,123.200 172.662 C 122.430 172.277,121.080 171.546,120.200 171.035 C 119.320 170.525,117.788 169.661,116.795 169.115 C 115.802 168.570,113.504 167.280,111.689 166.251 C 109.874 165.221,107.536 163.905,106.494 163.327 C 103.890 161.882,95.352 157.104,93.400 155.998 C 92.520 155.499,90.810 154.545,89.600 153.878 C 88.390 153.211,86.680 152.257,85.800 151.760 C 84.920 151.263,83.570 150.508,82.800 150.082 C 82.030 149.656,80.731 148.930,79.912 148.468 C 79.094 148.006,77.204 146.967,75.712 146.159 C 74.221 145.352,72.829 144.536,72.620 144.346 C 72.411 144.156,72.051 144.006,71.820 144.013 C 71.589 144.020,71.760 144.300,72.200 144.637 M280.400 165.772 C 280.400 165.963,286.157 169.226,287.336 169.703 C 287.747 169.869,288.560 170.335,289.142 170.738 C 290.439 171.635,291.600 172.078,291.600 171.675 C 291.600 171.510,291.105 171.169,290.500 170.916 C 289.895 170.663,288.950 170.181,288.400 169.845 C 284.551 167.494,280.400 165.380,280.400 165.772 M135.200 179.764 C 135.200 179.942,140.961 183.217,142.100 183.686 C 143.752 184.366,142.548 183.509,139.207 181.625 C 135.722 179.661,135.200 179.418,135.200 179.764 " stroke="none" fill="#abdbdb" fill-rule="evenodd"></path><path id="path3" d="M0.000 218.400 L 0.000 436.800 200.000 436.800 L 400.000 436.800 400.000 218.400 L 400.000 0.000 200.000 0.000 L 0.000 0.000 0.000 218.400 M70.251 47.566 C 70.938 47.985,72.648 48.950,74.051 49.710 C 75.453 50.469,77.320 51.501,78.200 52.002 C 80.304 53.200,102.939 65.876,105.000 67.010 C 107.099 68.166,128.852 80.331,135.000 83.788 C 137.640 85.272,140.970 87.123,142.400 87.902 C 143.830 88.680,146.045 89.920,147.321 90.658 C 148.598 91.396,149.721 92.000,149.815 92.000 C 149.910 92.000,150.891 92.555,151.994 93.234 L 154.000 94.469 154.000 141.811 C 154.000 167.849,154.146 189.243,154.324 189.353 C 154.610 189.530,157.343 188.111,164.200 184.226 C 166.781 182.764,170.032 180.972,172.800 179.486 C 174.010 178.837,175.180 178.171,175.400 178.006 C 175.801 177.706,176.381 177.381,183.800 173.288 C 186.000 172.074,190.447 169.578,193.682 167.740 C 196.917 165.903,199.639 164.400,199.731 164.400 C 199.824 164.400,201.924 163.230,204.400 161.800 C 206.876 160.370,208.946 159.200,209.000 159.200 C 209.054 159.200,212.497 157.291,216.649 154.959 C 223.213 151.272,231.283 146.747,236.600 143.773 L 238.200 142.878 238.302 95.157 C 238.358 68.911,238.557 47.283,238.744 47.096 C 238.932 46.908,240.663 47.663,242.600 48.777 C 244.533 49.890,246.165 50.800,246.226 50.800 C 246.287 50.800,248.051 51.790,250.147 53.000 C 252.243 54.210,254.054 55.200,254.172 55.200 C 254.290 55.200,255.562 55.920,257.000 56.800 C 258.438 57.680,259.676 58.400,259.752 58.400 C 259.922 58.400,262.276 59.705,277.400 68.188 C 289.644 75.055,290.519 75.540,295.400 78.181 C 296.940 79.014,299.190 80.282,300.400 80.998 C 302.221 82.076,308.569 85.647,322.000 93.147 C 322.990 93.700,323.905 94.306,324.034 94.493 C 324.470 95.127,324.800 237.514,324.533 309.744 L 324.267 381.588 322.034 380.357 C 320.805 379.679,318.630 378.490,317.200 377.714 C 315.770 376.939,313.610 375.717,312.400 375.000 C 311.190 374.283,309.030 373.063,307.600 372.289 C 303.550 370.096,295.151 365.397,293.600 364.456 C 292.830 363.989,291.930 363.486,291.600 363.337 C 291.270 363.189,289.602 362.282,287.894 361.323 C 286.186 360.363,283.936 359.105,282.894 358.527 C 281.852 357.949,279.020 356.360,276.600 354.995 C 274.180 353.631,271.120 351.919,269.800 351.192 C 268.480 350.464,266.770 349.515,266.000 349.082 C 263.376 347.606,257.805 344.507,255.800 343.407 C 254.700 342.804,252.450 341.543,250.800 340.605 C 249.150 339.667,245.961 337.881,243.714 336.635 C 241.466 335.390,239.351 334.094,239.014 333.757 C 238.469 333.212,238.400 327.860,238.400 286.171 C 238.400 260.337,238.290 239.200,238.155 239.200 C 238.020 239.200,236.313 240.100,234.362 241.200 C 232.410 242.300,230.739 243.200,230.648 243.200 C 230.556 243.200,229.338 243.889,227.941 244.731 C 226.543 245.573,224.050 246.990,222.400 247.880 C 220.750 248.771,218.770 249.880,218.000 250.346 C 217.230 250.812,216.330 251.314,216.000 251.463 C 215.471 251.701,213.568 252.754,207.800 256.003 C 202.111 259.208,195.030 263.153,190.600 265.587 C 189.280 266.313,188.020 267.036,187.800 267.195 C 187.580 267.354,186.230 268.118,184.800 268.894 C 181.501 270.683,179.408 271.842,173.200 275.315 C 170.450 276.854,166.130 279.267,163.600 280.677 C 161.070 282.088,158.730 283.417,158.400 283.631 C 158.070 283.845,157.054 284.375,156.143 284.810 C 153.837 285.908,154.000 282.175,154.000 334.033 C 154.000 364.224,153.860 381.200,153.612 381.200 C 153.399 381.200,152.634 380.869,151.912 380.465 C 151.190 380.061,149.520 379.134,148.200 378.405 C 141.769 374.851,127.970 367.128,122.718 364.143 C 119.483 362.304,116.751 360.800,116.647 360.800 C 116.543 360.800,115.409 360.187,114.129 359.437 C 110.609 357.377,86.012 343.600,85.853 343.600 C 85.777 343.600,84.195 342.725,82.337 341.656 C 80.479 340.587,77.888 339.124,76.579 338.404 C 70.166 334.878,69.249 334.339,68.893 333.887 C 68.039 332.804,67.914 46.796,68.766 46.801 C 68.895 46.802,69.563 47.146,70.251 47.566 " stroke="none" fill="#64b4b4" fill-rule="evenodd"></path><path id="path4" d="M68.265 118.552 C 67.949 203.342,68.328 333.170,68.893 333.887 C 69.249 334.339,70.166 334.878,76.579 338.404 C 77.888 339.124,80.479 340.587,82.337 341.656 C 84.195 342.725,85.777 343.600,85.853 343.600 C 86.012 343.600,110.609 357.377,114.129 359.437 C 115.409 360.187,116.541 360.800,116.643 360.800 C 116.855 360.800,122.945 364.225,124.300 365.107 C 124.795 365.429,125.200 365.532,125.200 365.337 C 125.200 365.142,124.525 364.630,123.700 364.199 C 122.875 363.768,121.072 362.737,119.693 361.908 C 118.314 361.079,117.091 360.400,116.975 360.400 C 116.859 360.400,114.117 358.895,110.882 357.055 C 107.647 355.215,103.740 353.036,102.200 352.213 C 100.660 351.389,99.220 350.581,99.000 350.416 C 98.780 350.251,97.340 349.431,95.800 348.593 C 94.260 347.755,92.010 346.532,90.800 345.874 C 89.590 345.216,88.122 344.345,87.538 343.939 C 86.954 343.533,86.361 343.200,86.220 343.200 C 86.079 343.200,83.280 341.670,80.000 339.800 C 76.720 337.930,73.951 336.400,73.847 336.400 C 73.743 336.400,72.594 335.767,71.295 334.993 L 68.933 333.585 68.666 261.993 C 68.519 222.617,68.519 158.200,68.666 118.844 L 68.932 47.289 70.886 48.491 C 71.961 49.152,72.932 49.602,73.044 49.490 C 73.224 49.310,69.187 46.800,68.718 46.800 C 68.616 46.800,68.412 79.088,68.265 118.552 M238.667 47.067 C 238.520 47.213,238.400 68.791,238.400 95.018 C 238.400 139.988,238.360 142.734,237.699 143.251 C 237.063 143.749,237.072 143.758,237.799 143.351 C 238.593 142.907,238.601 142.457,238.702 95.051 C 238.764 65.637,238.948 47.200,239.178 47.200 C 239.384 47.200,239.657 47.369,239.784 47.575 C 239.912 47.781,240.507 48.202,241.108 48.510 C 244.048 50.020,249.568 53.046,250.938 53.900 C 251.784 54.427,252.558 54.775,252.658 54.675 C 252.759 54.574,251.617 53.810,250.121 52.977 C 248.624 52.143,246.804 51.130,246.076 50.724 C 245.348 50.319,243.487 49.270,241.940 48.393 C 238.797 46.612,239.028 46.706,238.667 47.067 M73.600 49.775 C 73.600 49.929,77.590 52.246,82.800 55.116 C 83.790 55.661,84.780 56.238,85.000 56.399 C 85.220 56.559,86.930 57.503,88.800 58.497 C 90.670 59.491,92.830 60.674,93.600 61.126 C 95.157 62.039,96.646 62.866,100.200 64.793 C 101.520 65.508,103.078 66.433,103.662 66.847 C 104.246 67.261,104.837 67.600,104.976 67.600 C 105.114 67.600,106.617 68.388,108.314 69.351 C 113.818 72.473,114.562 72.889,117.200 74.305 C 118.630 75.073,119.980 75.834,120.200 75.997 C 120.420 76.160,121.500 76.791,122.600 77.400 C 126.510 79.564,129.023 80.947,130.684 81.847 C 131.609 82.349,132.830 83.063,133.396 83.434 C 133.962 83.805,134.518 84.016,134.631 83.903 C 134.744 83.789,133.793 83.107,132.518 82.387 C 129.667 80.775,107.208 68.226,105.000 67.010 C 104.120 66.526,98.090 63.156,91.600 59.521 C 85.110 55.886,78.900 52.410,77.800 51.797 C 76.700 51.184,75.445 50.439,75.011 50.141 C 74.227 49.603,73.600 49.440,73.600 49.775 M253.200 54.975 C 253.200 55.131,255.348 56.422,258.400 58.100 C 262.280 60.233,264.699 61.578,267.000 62.881 C 268.320 63.629,269.670 64.368,270.000 64.524 C 270.330 64.679,271.230 65.189,272.000 65.657 C 272.770 66.124,274.390 67.053,275.600 67.721 C 276.810 68.389,278.520 69.345,279.400 69.845 C 280.280 70.345,281.450 71.001,282.000 71.303 C 288.608 74.929,301.382 82.085,301.800 82.394 C 302.020 82.557,303.730 83.503,305.600 84.497 C 307.470 85.491,309.630 86.676,310.400 87.131 C 311.170 87.585,312.250 88.203,312.800 88.504 C 316.352 90.448,318.705 91.788,319.389 92.258 C 320.281 92.871,321.184 93.011,320.580 92.443 C 320.371 92.247,316.240 89.884,311.400 87.193 C 306.560 84.502,301.610 81.714,300.400 80.998 C 299.190 80.282,296.940 79.014,295.400 78.181 C 290.519 75.540,289.644 75.055,277.400 68.188 C 262.276 59.705,259.922 58.400,259.752 58.400 C 259.676 58.400,258.486 57.713,257.107 56.874 C 254.658 55.383,253.200 54.675,253.200 54.975 M135.200 84.276 C 135.200 84.468,135.695 84.833,136.300 85.087 C 136.905 85.341,138.390 86.125,139.600 86.827 C 141.780 88.094,143.984 89.322,150.320 92.800 L 153.599 94.600 153.600 142.076 C 153.600 189.725,153.634 190.941,154.935 189.617 C 155.290 189.255,155.258 189.173,154.800 189.271 C 154.270 189.385,154.188 183.881,154.098 141.933 L 153.997 94.467 151.992 93.233 C 150.890 92.555,149.910 92.000,149.815 92.000 C 149.721 92.000,148.598 91.396,147.321 90.658 C 146.045 89.920,144.010 88.776,142.800 88.116 C 141.590 87.456,139.385 86.243,137.900 85.421 C 136.415 84.599,135.200 84.084,135.200 84.276 M321.209 93.090 C 321.213 93.260,321.798 93.670,322.509 94.000 L 323.800 94.600 324.002 142.200 L 324.205 189.800 324.296 142.400 C 324.347 116.330,324.256 94.800,324.094 94.556 C 323.704 93.966,321.198 92.693,321.209 93.090 M232.304 146.142 C 229.200 147.923,228.796 148.471,231.800 146.826 C 233.987 145.629,235.241 144.781,234.780 144.812 C 234.681 144.819,233.567 145.417,232.304 146.142 M213.400 156.800 C 212.740 157.237,212.380 157.592,212.600 157.588 C 213.001 157.582,215.176 156.023,214.800 156.012 C 214.690 156.008,214.060 156.363,213.400 156.800 M203.900 162.027 C 203.075 162.463,202.400 162.908,202.400 163.018 C 202.400 163.127,203.120 162.849,204.000 162.400 C 204.880 161.951,205.600 161.497,205.600 161.392 C 205.600 161.130,205.597 161.131,203.900 162.027 M196.132 166.322 C 192.064 168.660,191.203 169.465,195.000 167.380 C 198.925 165.225,200.264 164.400,199.800 164.423 C 199.580 164.434,197.929 165.288,196.132 166.322 M186.700 171.627 C 185.875 172.063,185.200 172.508,185.200 172.618 C 185.200 172.727,185.920 172.449,186.800 172.000 C 187.680 171.551,188.400 171.097,188.400 170.992 C 188.400 170.730,188.397 170.731,186.700 171.627 M182.700 173.826 C 181.655 174.370,180.800 174.905,180.800 175.014 C 180.800 175.124,181.700 174.757,182.800 174.200 C 183.900 173.643,184.800 173.100,184.800 172.993 C 184.800 172.729,184.836 172.714,182.700 173.826 M167.096 182.550 C 164.806 183.958,164.737 184.291,167.000 183.013 C 169.302 181.713,169.466 181.595,168.967 181.612 C 168.765 181.619,167.923 182.041,167.096 182.550 M163.097 184.766 C 161.285 185.928,161.286 186.156,163.100 185.241 C 164.035 184.770,164.800 184.297,164.800 184.192 C 164.800 183.849,164.223 184.044,163.097 184.766 M159.500 186.827 C 158.675 187.263,158.000 187.708,158.000 187.818 C 158.000 187.927,158.720 187.649,159.600 187.200 C 160.480 186.751,161.200 186.297,161.200 186.192 C 161.200 185.930,161.197 185.931,159.500 186.827 M324.594 238.000 C 324.594 264.290,324.641 275.045,324.700 261.900 C 324.758 248.755,324.758 227.245,324.700 214.100 C 324.641 200.955,324.594 211.710,324.594 238.000 M235.504 240.142 C 232.253 242.007,232.059 242.433,235.265 240.668 C 236.731 239.860,238.036 239.200,238.165 239.200 C 238.294 239.200,238.403 260.305,238.406 286.100 C 238.409 311.895,238.544 333.198,238.706 333.440 C 239.096 334.024,241.409 335.443,245.800 337.791 C 247.780 338.850,249.130 339.445,248.800 339.113 C 248.470 338.781,246.782 337.752,245.049 336.826 C 240.613 334.457,240.285 334.268,239.500 333.638 C 238.840 333.109,238.800 330.351,238.800 285.938 C 238.800 248.488,238.697 238.802,238.300 238.812 C 238.025 238.819,236.767 239.417,235.504 240.142 M227.500 244.629 C 226.005 245.440,226.096 245.778,227.600 245.000 C 228.260 244.659,228.800 244.294,228.800 244.190 C 228.800 243.932,228.757 243.947,227.500 244.629 M224.300 246.427 C 223.475 246.863,222.800 247.308,222.800 247.418 C 222.800 247.527,223.520 247.249,224.400 246.800 C 225.280 246.351,226.000 245.897,226.000 245.792 C 226.000 245.530,225.997 245.531,224.300 246.427 M209.000 254.990 C 208.120 255.532,207.525 255.981,207.677 255.988 C 208.024 256.003,210.800 254.379,210.800 254.160 C 210.800 253.900,210.676 253.957,209.000 254.990 M201.700 259.031 C 199.885 260.030,198.400 260.939,198.400 261.052 C 198.400 261.276,204.367 258.093,204.980 257.542 C 205.694 256.900,205.000 257.215,201.700 259.031 M196.700 261.829 C 195.205 262.640,195.296 262.978,196.800 262.200 C 197.460 261.859,198.000 261.494,198.000 261.390 C 198.000 261.132,197.957 261.147,196.700 261.829 M185.900 267.877 C 184.856 268.458,184.063 268.997,184.140 269.073 C 184.300 269.234,188.000 267.214,188.000 266.966 C 188.000 266.715,187.943 266.740,185.900 267.877 M170.296 276.550 C 168.006 277.958,167.937 278.291,170.200 277.013 C 172.502 275.713,172.666 275.595,172.167 275.612 C 171.965 275.619,171.123 276.041,170.296 276.550 M162.700 280.827 C 161.875 281.263,161.200 281.708,161.200 281.818 C 161.200 281.927,161.920 281.649,162.800 281.200 C 163.680 280.751,164.400 280.297,164.400 280.192 C 164.400 279.930,164.397 279.931,162.700 280.827 M156.600 284.231 C 155.720 284.757,155.180 285.189,155.400 285.192 C 155.881 285.198,158.400 283.698,158.400 283.406 C 158.400 283.144,158.483 283.107,156.600 284.231 M153.867 285.867 C 153.720 286.013,153.600 307.433,153.600 333.467 C 153.600 359.500,153.534 380.800,153.454 380.800 C 153.374 380.800,150.899 379.430,147.954 377.755 C 145.009 376.081,142.240 374.548,141.800 374.350 C 141.360 374.152,140.370 373.608,139.600 373.142 C 138.830 372.675,137.210 371.747,136.000 371.079 C 134.790 370.411,133.146 369.490,132.347 369.032 C 127.789 366.422,126.202 365.599,125.914 365.695 C 125.736 365.755,129.941 368.232,135.257 371.201 C 140.573 374.171,146.290 377.364,147.961 378.297 C 152.145 380.634,153.598 381.336,153.809 381.124 C 153.950 380.984,154.306 285.600,154.167 285.600 C 154.148 285.600,154.013 285.720,153.867 285.867 M324.000 333.400 C 324.000 359.470,323.937 380.800,323.860 380.800 C 323.645 380.800,320.450 379.062,318.082 377.657 C 316.918 376.966,315.879 376.400,315.774 376.400 C 315.670 376.400,314.913 375.981,314.092 375.469 C 313.271 374.957,310.980 373.673,309.000 372.616 C 307.020 371.559,305.220 370.557,305.000 370.390 C 304.780 370.222,303.610 369.550,302.400 368.897 C 301.190 368.243,299.480 367.300,298.600 366.801 C 290.337 362.114,280.771 356.800,280.598 356.800 C 280.480 356.800,279.663 356.324,278.783 355.741 C 277.904 355.159,277.088 354.779,276.971 354.895 C 276.854 355.012,277.983 355.790,279.479 356.623 C 280.976 357.457,282.830 358.489,283.600 358.918 C 284.370 359.347,286.350 360.456,288.000 361.383 C 289.650 362.310,291.270 363.189,291.600 363.337 C 291.930 363.486,292.830 363.989,293.600 364.456 C 295.151 365.397,303.550 370.096,307.600 372.289 C 309.030 373.063,311.190 374.283,312.400 375.000 C 313.610 375.717,315.770 376.939,317.200 377.714 C 318.630 378.490,320.835 379.695,322.100 380.392 L 324.400 381.660 324.400 333.830 C 324.400 307.524,324.310 286.000,324.200 286.000 C 324.090 286.000,324.000 307.330,324.000 333.400 M249.600 339.771 C 249.600 339.932,251.279 340.916,255.800 343.404 C 257.651 344.422,261.746 346.701,266.600 349.414 C 267.700 350.029,269.140 350.831,269.800 351.197 C 270.460 351.562,272.215 352.538,273.700 353.365 C 275.185 354.192,276.400 354.691,276.400 354.474 C 276.400 354.256,275.905 353.888,275.300 353.655 C 274.695 353.422,272.940 352.507,271.400 351.622 C 269.860 350.736,266.080 348.623,263.000 346.926 C 259.920 345.228,257.340 343.696,257.267 343.520 C 257.193 343.344,256.962 343.200,256.753 343.200 C 256.543 343.200,254.945 342.390,253.200 341.400 C 250.114 339.649,249.600 339.416,249.600 339.771 " stroke="none" fill="#7bcccc" fill-rule="evenodd"></path></g></svg>