<svg id="svg" xmlns="http://www.w3.org/2000/svg" xmlns:xlink="http://www.w3.org/1999/xlink" width="400" height="436.82539682539687" viewBox="0, 0, 400,436.82539682539687"><g id="svgg"><path id="path0" d="M68.898 94.832 L 69.000 142.458 71.000 143.557 C 72.100 144.162,74.221 145.325,75.712 146.142 C 77.204 146.959,79.094 148.006,79.912 148.468 C 80.731 148.930,82.030 149.656,82.800 150.082 C 83.570 150.508,84.920 151.263,85.800 151.760 C 86.680 152.257,88.390 153.211,89.600 153.878 C 90.810 154.545,92.520 155.499,93.400 155.998 C 95.352 157.104,103.890 161.882,106.494 163.327 C 107.536 163.905,109.786 165.171,111.494 166.140 C 113.202 167.109,115.590 168.440,116.800 169.098 C 118.010 169.755,119.630 170.670,120.400 171.130 C 121.170 171.590,122.430 172.278,123.200 172.660 C 123.970 173.041,125.230 173.742,126.000 174.218 C 126.770 174.693,129.020 175.947,131.000 177.004 C 132.980 178.061,134.660 179.077,134.733 179.263 C 134.807 179.448,135.038 179.600,135.247 179.600 C 135.457 179.600,137.064 180.415,138.819 181.411 C 140.575 182.407,142.774 183.642,143.706 184.156 C 144.638 184.669,146.480 185.684,147.800 186.410 C 152.331 188.903,153.001 189.286,153.400 189.609 C 153.666 189.824,153.766 174.005,153.697 142.265 L 153.594 94.599 150.321 92.799 C 143.406 88.997,142.536 88.516,140.400 87.317 C 139.190 86.638,137.570 85.749,136.800 85.341 C 136.030 84.934,135.310 84.510,135.200 84.400 C 135.090 84.290,134.370 83.862,133.600 83.448 C 132.226 82.710,131.205 82.150,126.800 79.721 C 121.510 76.802,120.577 76.276,120.200 75.997 C 119.980 75.834,118.630 75.073,117.200 74.305 C 114.562 72.889,113.818 72.473,108.314 69.351 C 106.617 68.388,105.114 67.600,104.976 67.600 C 104.837 67.600,104.246 67.261,103.662 66.847 C 103.078 66.433,101.520 65.508,100.200 64.793 C 96.646 62.866,95.157 62.039,93.600 61.126 C 92.830 60.674,90.670 59.487,88.800 58.488 C 86.930 57.488,84.729 56.250,83.908 55.735 C 83.087 55.221,82.345 54.800,82.258 54.800 C 82.172 54.800,80.076 53.630,77.600 52.200 C 75.124 50.770,73.007 49.600,72.894 49.600 C 72.781 49.600,71.813 49.061,70.743 48.403 L 68.797 47.205 68.898 94.832 M238.800 94.701 L 238.800 142.201 240.700 143.200 C 241.745 143.750,244.040 145.022,245.800 146.027 C 247.560 147.033,250.221 148.524,251.712 149.341 C 253.204 150.159,255.004 151.153,255.712 151.551 C 256.421 151.948,258.204 152.924,259.676 153.719 C 263.508 155.788,264.104 156.140,264.713 156.700 C 265.012 156.975,265.418 157.200,265.614 157.200 C 265.811 157.200,267.733 158.217,269.886 159.461 C 272.039 160.705,275.150 162.443,276.800 163.323 C 278.450 164.204,279.891 165.031,280.001 165.162 C 280.112 165.293,280.922 165.780,281.801 166.245 C 282.681 166.710,284.570 167.723,286.000 168.496 C 287.430 169.269,289.230 170.239,290.000 170.651 C 290.770 171.063,291.490 171.490,291.600 171.600 C 291.710 171.710,292.430 172.134,293.200 172.541 C 295.214 173.607,298.803 175.613,300.200 176.453 C 300.860 176.850,302.120 177.543,303.000 177.994 C 303.880 178.445,304.870 178.984,305.200 179.191 C 305.530 179.398,307.288 180.390,309.106 181.395 C 315.315 184.827,316.201 185.328,317.600 186.193 C 318.370 186.669,319.270 187.181,319.600 187.331 C 319.930 187.480,321.100 188.115,322.200 188.742 L 324.200 189.881 324.000 142.256 L 323.800 94.631 322.600 94.015 C 321.940 93.677,321.310 93.306,321.200 93.192 C 321.090 93.077,320.550 92.768,320.000 92.505 C 319.450 92.242,317.740 91.295,316.200 90.402 C 314.660 89.509,313.040 88.601,312.600 88.384 C 312.160 88.167,311.170 87.611,310.400 87.147 C 309.630 86.684,307.470 85.491,305.600 84.497 C 303.730 83.503,302.020 82.557,301.800 82.394 C 301.382 82.085,288.608 74.929,282.000 71.303 C 281.450 71.001,280.280 70.345,279.400 69.845 C 278.520 69.345,276.810 68.389,275.600 67.721 C 274.390 67.053,272.770 66.124,272.000 65.657 C 271.230 65.189,270.330 64.679,270.000 64.524 C 269.670 64.368,268.320 63.629,267.000 62.881 C 264.570 61.504,262.273 60.229,258.100 57.937 C 256.835 57.242,255.129 56.252,254.308 55.737 C 253.487 55.222,252.719 54.800,252.600 54.800 C 252.481 54.800,251.713 54.382,250.892 53.871 C 249.559 53.041,244.007 49.999,241.108 48.510 C 240.507 48.202,239.912 47.781,239.784 47.575 C 238.893 46.132,238.800 50.562,238.800 94.701 M210.155 231.773 C 209.726 232.892,210.316 233.663,211.498 233.527 C 212.373 233.426,212.600 233.194,212.600 232.400 C 212.600 231.197,210.575 230.678,210.155 231.773 M212.000 232.400 C 212.000 233.244,211.418 233.476,211.000 232.800 C 210.708 232.328,211.087 231.600,211.624 231.600 C 211.831 231.600,212.000 231.960,212.000 232.400 M238.300 238.665 C 238.696 238.825,238.800 248.662,238.800 285.971 C 238.800 330.352,238.840 333.109,239.500 333.638 C 240.280 334.264,240.573 334.433,245.049 336.832 C 246.782 337.761,248.399 338.674,248.642 338.861 C 248.885 339.048,249.965 339.668,251.042 340.238 C 256.265 343.004,257.014 343.416,257.200 343.623 C 257.310 343.746,259.920 345.234,263.000 346.929 C 266.080 348.625,269.860 350.734,271.400 351.617 C 272.940 352.500,274.646 353.408,275.192 353.636 C 275.737 353.864,276.278 354.174,276.392 354.325 C 276.507 354.476,277.230 354.937,278.000 355.349 C 282.906 357.975,288.519 361.097,298.800 366.916 C 299.570 367.352,301.190 368.243,302.400 368.897 C 303.610 369.550,304.780 370.222,305.000 370.390 C 305.220 370.557,307.020 371.559,309.000 372.616 C 310.980 373.673,313.271 374.957,314.092 375.469 C 314.913 375.981,315.670 376.400,315.774 376.400 C 315.879 376.400,316.918 376.966,318.082 377.657 C 320.450 379.062,323.645 380.800,323.860 380.800 C 324.329 380.800,323.958 286.304,323.486 285.871 C 323.204 285.612,321.989 284.878,320.786 284.240 C 319.584 283.602,316.620 281.961,314.200 280.595 C 311.780 279.228,308.540 277.433,307.000 276.605 C 305.460 275.778,304.020 274.964,303.800 274.798 C 303.580 274.631,302.410 273.963,301.200 273.313 C 295.983 270.512,293.115 268.919,288.652 266.342 C 286.040 264.834,283.814 263.600,283.704 263.600 C 283.594 263.600,282.491 262.995,281.252 262.255 C 280.014 261.515,277.740 260.223,276.200 259.383 C 272.492 257.362,271.694 256.921,269.800 255.845 C 268.920 255.345,267.210 254.389,266.000 253.721 C 261.400 251.182,259.754 250.244,258.308 249.336 C 257.487 248.821,256.730 248.400,256.626 248.400 C 256.387 248.400,240.885 239.681,239.811 238.942 C 239.377 238.644,238.747 238.414,238.411 238.432 C 238.000 238.453,237.963 238.529,238.300 238.665 M68.800 286.153 L 68.800 333.506 71.229 334.953 C 72.564 335.749,73.743 336.400,73.847 336.400 C 73.951 336.400,76.720 337.930,80.000 339.800 C 83.280 341.670,86.079 343.200,86.220 343.200 C 86.361 343.200,86.954 343.532,87.538 343.938 C 88.122 344.345,89.770 345.313,91.200 346.091 C 95.988 348.694,97.797 349.705,98.200 350.003 C 98.420 350.166,100.040 351.067,101.800 352.004 C 103.560 352.942,107.647 355.215,110.882 357.055 C 114.117 358.895,116.859 360.400,116.975 360.400 C 117.091 360.400,118.314 361.079,119.693 361.908 C 121.072 362.737,122.875 363.768,123.700 364.199 C 124.525 364.630,125.200 365.121,125.200 365.291 C 125.200 365.461,125.438 365.600,125.729 365.600 C 126.203 365.600,127.792 366.424,132.347 369.032 C 133.146 369.490,134.790 370.411,136.000 371.079 C 137.210 371.747,138.830 372.675,139.600 373.142 C 140.370 373.608,141.360 374.152,141.800 374.350 C 142.240 374.548,145.009 376.081,147.954 377.755 C 150.899 379.430,153.374 380.800,153.456 380.800 C 154.006 380.800,153.353 285.861,152.800 285.561 C 152.470 285.382,149.500 283.722,146.200 281.872 C 142.900 280.023,138.760 277.742,137.000 276.804 C 135.240 275.867,133.620 274.966,133.400 274.803 C 132.899 274.431,128.605 272.052,127.000 271.257 C 126.340 270.930,125.710 270.559,125.600 270.431 C 125.371 270.166,125.084 270.005,120.200 267.395 C 118.220 266.336,115.929 265.050,115.108 264.535 C 114.287 264.021,113.545 263.600,113.459 263.600 C 113.373 263.600,111.524 262.592,109.351 261.360 C 103.423 257.998,102.256 257.343,96.600 254.197 C 93.740 252.606,90.731 250.928,89.912 250.466 C 89.094 250.005,87.204 248.964,85.712 248.152 C 84.221 247.341,82.522 246.345,81.938 245.938 C 81.354 245.532,80.761 245.200,80.619 245.200 C 80.477 245.200,77.826 243.760,74.726 242.000 C 71.627 240.240,69.026 238.800,68.946 238.800 C 68.866 238.800,68.800 260.109,68.800 286.153 " stroke="none" fill="#83d4d4" fill-rule="evenodd"></path><path id="path1" d="M68.800 190.396 L 68.800 237.982 69.700 238.557 C 70.195 238.873,72.670 240.288,75.200 241.701 C 79.670 244.197,88.159 248.966,91.400 250.802 C 92.280 251.301,93.990 252.245,95.200 252.901 C 96.410 253.556,98.390 254.646,99.600 255.322 C 105.364 258.541,111.218 261.808,117.800 265.480 C 121.760 267.689,125.720 269.903,126.600 270.401 C 127.480 270.899,130.810 272.750,134.000 274.516 C 137.190 276.283,142.893 279.481,146.673 281.623 C 151.989 284.637,153.597 285.385,153.773 284.927 C 154.114 284.038,154.034 191.073,153.692 190.535 C 153.402 190.079,149.221 187.615,142.600 183.999 C 139.651 182.389,130.643 177.366,123.800 173.516 C 120.500 171.659,116.579 169.473,115.088 168.657 C 113.596 167.840,111.706 166.795,110.888 166.334 C 110.069 165.872,107.060 164.190,104.200 162.596 C 99.844 160.167,83.254 150.860,78.400 148.121 C 75.347 146.399,72.904 145.041,70.900 143.951 L 68.800 142.810 68.800 190.396 M239.600 190.962 L 239.600 238.324 241.300 239.316 C 243.062 240.345,244.139 240.951,248.200 243.197 C 249.520 243.927,252.670 245.687,255.200 247.109 C 261.840 250.839,270.253 255.533,272.800 256.929 C 274.010 257.591,278.510 260.106,282.800 262.516 C 289.143 266.080,308.738 277.043,315.800 280.979 C 320.729 283.726,323.499 285.200,323.734 285.200 C 323.880 285.200,324.000 263.800,324.000 237.644 L 324.000 190.088 322.300 189.253 C 321.365 188.794,319.700 187.903,318.600 187.273 C 316.115 185.849,303.825 178.962,300.650 177.214 C 299.358 176.503,297.413 175.397,296.328 174.757 C 294.512 173.687,292.282 172.450,287.000 169.582 C 285.900 168.985,282.930 167.336,280.400 165.918 C 271.628 161.000,258.992 153.903,257.400 153.000 C 254.765 151.504,253.137 150.601,250.400 149.117 C 247.706 147.656,245.487 146.415,242.400 144.643 C 241.410 144.075,240.375 143.607,240.100 143.605 C 239.703 143.601,239.600 153.336,239.600 190.962 " stroke="none" fill="#fafbfb" fill-rule="evenodd"></path><path id="path2" d="M68.498 190.444 L 68.600 238.488 72.313 240.634 C 74.355 241.814,77.415 243.522,79.113 244.430 C 80.811 245.338,82.380 246.216,82.600 246.382 C 82.820 246.548,84.221 247.346,85.712 248.156 C 87.204 248.965,89.094 250.005,89.912 250.466 C 90.731 250.928,93.740 252.606,96.600 254.197 C 102.256 257.343,103.423 257.998,109.351 261.360 C 111.524 262.592,113.373 263.600,113.459 263.600 C 113.545 263.600,114.287 264.021,115.108 264.535 C 115.929 265.050,118.220 266.336,120.200 267.395 C 125.084 270.005,125.371 270.166,125.600 270.431 C 125.710 270.559,126.340 270.930,127.000 271.257 C 128.620 272.059,132.903 274.434,133.400 274.805 C 133.620 274.969,135.420 275.966,137.400 277.020 C 139.380 278.074,142.620 279.869,144.600 281.009 C 152.648 285.641,153.634 286.092,154.347 285.466 C 154.706 285.150,156.260 284.225,157.800 283.409 C 159.340 282.594,161.230 281.558,162.000 281.107 C 164.024 279.923,173.021 274.890,175.600 273.499 C 176.810 272.846,179.330 271.448,181.200 270.392 C 195.420 262.361,200.431 259.600,200.788 259.600 C 201.014 259.600,201.200 259.441,201.200 259.247 C 201.200 259.052,201.515 258.793,201.900 258.670 C 202.285 258.548,203.680 257.836,205.000 257.088 C 206.320 256.340,210.640 253.925,214.600 251.721 C 218.560 249.518,222.520 247.305,223.400 246.805 C 224.280 246.304,226.530 245.042,228.400 244.000 C 233.560 241.125,234.844 240.400,236.760 239.281 C 238.493 238.270,238.538 238.265,239.760 238.969 C 244.640 241.785,256.471 248.400,256.626 248.400 C 256.730 248.400,257.487 248.821,258.308 249.336 C 259.754 250.244,261.400 251.182,266.000 253.721 C 267.210 254.389,268.920 255.345,269.800 255.845 C 271.694 256.921,272.492 257.362,276.200 259.383 C 277.740 260.223,280.014 261.515,281.252 262.255 C 282.491 262.995,283.594 263.600,283.704 263.600 C 283.814 263.600,286.040 264.834,288.652 266.342 C 293.115 268.919,295.983 270.512,301.200 273.313 C 302.410 273.963,303.580 274.631,303.800 274.798 C 304.020 274.964,305.460 275.778,307.000 276.605 C 308.540 277.433,311.780 279.228,314.200 280.595 C 316.620 281.961,319.590 283.602,320.800 284.240 C 322.010 284.878,323.060 285.535,323.133 285.700 C 323.207 285.865,323.522 286.000,323.835 286.000 C 324.323 286.000,324.389 279.249,324.302 237.939 L 324.200 189.878 322.200 188.741 C 321.100 188.115,319.930 187.481,319.600 187.331 C 319.270 187.181,318.370 186.669,317.600 186.193 C 316.201 185.328,315.315 184.827,309.106 181.395 C 307.288 180.390,305.530 179.398,305.200 179.191 C 304.870 178.984,303.880 178.445,303.000 177.994 C 302.120 177.543,300.860 176.850,300.200 176.453 C 299.540 176.056,297.920 175.134,296.600 174.404 C 295.280 173.673,293.789 172.809,293.288 172.484 C 292.786 172.158,292.284 171.982,292.174 172.093 C 291.997 172.269,295.431 174.332,301.200 177.516 C 304.137 179.136,316.438 186.034,318.600 187.273 C 319.700 187.903,321.365 188.794,322.300 189.253 L 324.000 190.088 324.000 237.644 C 324.000 263.800,323.880 285.200,323.734 285.200 C 323.499 285.200,320.729 283.726,315.800 280.979 C 308.738 277.043,289.143 266.080,282.800 262.516 C 278.510 260.106,274.010 257.591,272.800 256.929 C 270.253 255.533,261.840 250.839,255.200 247.109 C 252.670 245.687,249.520 243.927,248.200 243.197 C 244.139 240.951,243.062 240.345,241.300 239.316 L 239.600 238.324 239.600 190.962 C 239.600 153.336,239.703 143.601,240.100 143.605 C 240.375 143.607,241.410 144.075,242.400 144.643 C 245.487 146.415,247.706 147.656,250.400 149.117 C 251.830 149.892,253.630 150.882,254.400 151.316 C 255.170 151.750,257.330 152.958,259.200 154.000 C 261.070 155.043,265.390 157.471,268.800 159.397 C 279.002 165.158,280.000 165.688,279.997 165.337 C 279.995 165.152,278.780 164.370,277.297 163.600 C 275.813 162.830,273.496 161.540,272.146 160.732 C 270.796 159.925,268.546 158.675,267.146 157.954 C 265.746 157.233,264.510 156.543,264.400 156.422 C 264.173 156.170,263.447 155.754,259.676 153.719 C 258.204 152.924,256.460 151.972,255.800 151.602 C 255.140 151.233,253.520 150.335,252.200 149.607 C 250.880 148.879,248.360 147.470,246.600 146.475 C 239.142 142.261,239.105 142.244,238.636 142.861 C 238.255 143.363,234.747 145.416,227.800 149.203 C 225.837 150.273,223.174 151.755,220.400 153.323 C 219.630 153.758,216.840 155.317,214.200 156.789 C 210.213 159.011,193.051 168.637,188.000 171.484 C 187.230 171.919,185.430 172.908,184.000 173.682 C 182.570 174.457,180.680 175.499,179.800 175.998 C 172.351 180.220,157.825 188.347,156.279 189.158 C 154.620 190.028,154.244 190.095,153.524 189.645 C 152.456 188.978,150.706 187.996,147.312 186.159 C 145.821 185.352,144.429 184.536,144.220 184.346 C 144.011 184.156,143.660 184.000,143.440 184.000 C 142.805 184.000,143.593 184.589,146.000 185.912 C 151.281 188.815,153.413 190.097,153.691 190.533 C 154.034 191.073,154.115 284.035,153.773 284.927 C 153.597 285.385,151.989 284.637,146.673 281.623 C 142.893 279.481,137.190 276.283,134.000 274.516 C 130.810 272.750,127.480 270.899,126.600 270.401 C 125.720 269.903,121.760 267.689,117.800 265.480 C 111.218 261.808,105.364 258.541,99.600 255.322 C 98.390 254.646,96.410 253.556,95.200 252.901 C 93.990 252.245,92.280 251.301,91.400 250.802 C 88.159 248.966,79.670 244.197,75.200 241.701 C 72.670 240.288,70.195 238.873,69.700 238.557 L 68.800 237.982 68.800 190.342 C 68.800 152.290,68.901 142.780,69.300 143.089 C 69.910 143.561,71.200 144.042,71.200 143.798 C 71.200 143.604,68.976 142.400,68.618 142.400 C 68.496 142.400,68.443 164.020,68.498 190.444 M71.820 144.351 C 72.029 144.544,73.280 145.294,74.600 146.017 C 75.920 146.739,77.630 147.686,78.400 148.121 C 82.863 150.640,99.779 160.131,104.200 162.596 C 107.060 164.190,110.069 165.872,110.888 166.334 C 111.706 166.795,113.596 167.840,115.088 168.657 C 116.579 169.473,120.500 171.661,123.800 173.519 C 133.930 179.224,134.800 179.685,134.797 179.337 C 134.795 179.152,133.580 178.370,132.097 177.600 C 130.613 176.830,128.320 175.561,127.000 174.780 C 125.680 173.999,123.970 173.047,123.200 172.663 C 122.430 172.280,121.170 171.590,120.400 171.130 C 119.630 170.670,118.010 169.755,116.800 169.098 C 115.590 168.440,113.202 167.109,111.494 166.140 C 109.786 165.171,107.536 163.905,106.494 163.327 C 103.890 161.882,95.352 157.104,93.400 155.998 C 92.520 155.499,90.810 154.545,89.600 153.878 C 88.390 153.211,86.680 152.257,85.800 151.760 C 84.920 151.263,83.570 150.508,82.800 150.082 C 82.030 149.656,80.731 148.930,79.912 148.468 C 79.094 148.006,77.204 146.967,75.712 146.159 C 74.221 145.352,72.829 144.536,72.620 144.346 C 72.411 144.156,72.060 144.000,71.840 144.000 C 71.589 144.000,71.581 144.130,71.820 144.351 M280.400 165.772 C 280.400 165.963,286.157 169.226,287.336 169.703 C 287.747 169.869,288.560 170.335,289.142 170.738 C 290.439 171.635,291.600 172.078,291.600 171.675 C 291.600 171.510,291.105 171.169,290.500 170.916 C 289.895 170.663,288.950 170.181,288.400 169.845 C 284.551 167.494,280.400 165.380,280.400 165.772 M135.200 179.764 C 135.200 179.942,140.961 183.217,142.100 183.686 C 143.752 184.366,142.548 183.509,139.207 181.625 C 135.722 179.661,135.200 179.418,135.200 179.764 M212.600 232.400 C 212.600 233.603,210.575 234.122,210.155 233.027 C 209.726 231.908,210.316 231.137,211.498 231.273 C 212.373 231.374,212.600 231.606,212.600 232.400 " stroke="none" fill="#abdbdb" fill-rule="evenodd"></path><path id="path3" d="M104.400 0.447 C 102.090 0.638,99.887 0.975,99.505 1.197 C 99.123 1.419,98.189 1.600,97.429 1.600 C 96.669 1.600,95.947 1.762,95.824 1.961 C 95.702 2.159,94.476 2.451,93.101 2.609 C 91.725 2.767,90.510 3.016,90.400 3.162 C 90.223 3.398,88.021 3.978,84.700 4.664 C 84.095 4.789,83.600 5.027,83.600 5.194 C 83.600 5.361,82.904 5.609,82.053 5.745 C 81.202 5.881,79.987 6.263,79.353 6.594 C 78.719 6.924,77.896 7.196,77.524 7.198 C 77.152 7.199,76.736 7.380,76.600 7.600 C 76.464 7.820,76.003 8.000,75.576 8.000 C 75.149 8.000,74.800 8.160,74.800 8.355 C 74.800 8.551,74.170 8.829,73.400 8.974 C 72.630 9.118,72.000 9.408,72.000 9.618 C 72.000 9.828,71.685 10.006,71.300 10.014 C 70.915 10.021,69.880 10.375,69.000 10.800 C 68.120 11.225,67.175 11.579,66.900 11.586 C 66.625 11.594,66.400 11.780,66.400 12.000 C 66.400 12.220,66.130 12.400,65.800 12.400 C 65.470 12.400,65.200 12.566,65.200 12.768 C 65.200 12.971,64.660 13.255,64.000 13.400 C 63.340 13.545,62.800 13.810,62.800 13.988 C 62.800 14.167,62.350 14.426,61.800 14.564 C 61.250 14.702,60.800 14.992,60.800 15.208 C 60.800 15.423,60.530 15.600,60.200 15.600 C 59.870 15.600,59.600 15.780,59.600 16.000 C 59.600 16.220,59.234 16.400,58.787 16.400 C 58.341 16.400,57.878 16.654,57.759 16.964 C 57.639 17.274,57.071 17.646,56.495 17.791 C 55.919 17.935,55.167 18.376,54.824 18.770 C 54.481 19.163,53.795 19.613,53.300 19.770 C 52.805 19.926,52.400 20.222,52.400 20.427 C 52.400 20.632,52.156 20.800,51.858 20.800 C 51.561 20.800,50.868 21.205,50.320 21.700 C 48.665 23.195,47.046 24.400,46.694 24.400 C 46.511 24.400,45.945 24.850,45.435 25.400 C 44.925 25.950,44.380 26.400,44.223 26.400 C 44.067 26.400,43.431 26.895,42.810 27.500 C 42.189 28.105,40.822 29.320,39.772 30.200 C 37.284 32.285,32.229 37.327,30.200 39.748 C 29.320 40.799,28.105 42.171,27.500 42.798 C 26.895 43.425,26.400 44.067,26.400 44.223 C 26.400 44.380,25.950 44.925,25.400 45.435 C 24.850 45.945,24.400 46.511,24.400 46.694 C 24.400 47.046,23.195 48.665,21.700 50.320 C 21.205 50.868,20.800 51.561,20.800 51.858 C 20.800 52.156,20.632 52.400,20.427 52.400 C 20.222 52.400,19.926 52.805,19.770 53.300 C 19.613 53.795,19.165 54.425,18.774 54.700 C 18.383 54.976,17.948 55.726,17.807 56.367 C 17.666 57.008,17.292 57.633,16.976 57.754 C 16.659 57.876,16.400 58.341,16.400 58.787 C 16.400 59.234,16.220 59.600,16.000 59.600 C 15.780 59.600,15.600 59.870,15.600 60.200 C 15.600 60.530,15.423 60.800,15.208 60.800 C 14.992 60.800,14.702 61.250,14.564 61.800 C 14.426 62.350,14.167 62.800,13.988 62.800 C 13.810 62.800,13.545 63.340,13.400 64.000 C 13.255 64.660,12.971 65.200,12.768 65.200 C 12.566 65.200,12.400 65.470,12.400 65.800 C 12.400 66.130,12.220 66.400,12.000 66.400 C 11.780 66.400,11.594 66.625,11.586 66.900 C 11.579 67.175,11.225 68.120,10.800 69.000 C 10.375 69.880,10.021 70.915,10.014 71.300 C 10.006 71.685,9.828 72.000,9.618 72.000 C 9.408 72.000,9.118 72.630,8.974 73.400 C 8.829 74.170,8.551 74.800,8.355 74.800 C 8.160 74.800,8.000 75.149,8.000 75.576 C 8.000 76.003,7.840 76.451,7.645 76.572 C 7.450 76.693,7.172 77.423,7.027 78.196 C 6.882 78.968,6.609 79.600,6.419 79.600 C 6.230 79.600,5.951 80.500,5.800 81.600 C 5.649 82.700,5.382 83.600,5.208 83.600 C 5.033 83.600,4.789 84.095,4.664 84.700 C 3.978 88.021,3.398 90.223,3.162 90.400 C 3.016 90.510,2.767 91.725,2.609 93.101 C 2.451 94.476,2.159 95.702,1.961 95.824 C 1.762 95.947,1.600 96.721,1.600 97.544 C 1.600 98.367,1.434 99.211,1.231 99.420 C -0.114 100.805,-0.567 328.708,0.761 335.400 C 1.023 336.720,1.337 338.565,1.459 339.500 C 1.581 340.435,1.825 341.200,2.001 341.200 C 2.177 341.200,2.451 342.325,2.609 343.700 C 2.767 345.075,3.016 346.290,3.162 346.400 C 3.398 346.577,3.978 348.779,4.664 352.100 C 4.789 352.705,5.030 353.200,5.200 353.200 C 5.370 353.200,5.630 354.006,5.778 354.991 C 5.925 355.976,6.216 356.886,6.423 357.014 C 6.630 357.142,6.800 357.524,6.800 357.863 C 6.800 358.202,7.070 359.091,7.400 359.840 C 7.730 360.588,8.270 361.812,8.600 362.560 C 8.930 363.309,9.200 364.119,9.200 364.360 C 9.200 364.602,9.357 364.800,9.549 364.800 C 9.741 364.800,10.013 365.520,10.154 366.400 C 10.294 367.280,10.542 368.002,10.705 368.004 C 10.867 368.006,11.355 368.816,11.790 369.804 C 12.224 370.792,12.705 371.600,12.858 371.600 C 13.011 371.600,13.255 372.140,13.400 372.800 C 13.545 373.460,13.829 374.000,14.032 374.000 C 14.234 374.000,14.400 374.257,14.400 374.571 C 14.400 374.886,14.632 375.381,14.915 375.671 C 15.199 375.962,15.747 376.875,16.134 377.700 C 16.521 378.525,17.009 379.200,17.219 379.200 C 17.428 379.200,17.600 379.534,17.600 379.942 C 17.600 380.349,18.036 381.154,18.569 381.729 C 19.102 382.304,19.654 383.140,19.796 383.587 C 19.938 384.034,20.222 384.400,20.427 384.400 C 20.632 384.400,20.800 384.672,20.800 385.004 C 20.800 385.336,21.160 385.916,21.600 386.293 C 22.040 386.670,22.400 387.175,22.400 387.417 C 22.400 387.658,22.850 388.247,23.400 388.725 C 23.950 389.203,24.400 389.781,24.400 390.008 C 24.400 390.236,24.929 391.002,25.576 391.711 C 27.296 393.596,28.472 394.976,29.600 396.434 C 30.994 398.235,38.335 405.579,40.013 406.852 C 40.776 407.430,42.030 408.469,42.800 409.160 C 46.044 412.071,46.450 412.400,46.798 412.400 C 46.999 412.400,47.614 412.850,48.164 413.400 C 48.714 413.950,49.312 414.400,49.493 414.400 C 49.674 414.400,50.130 414.760,50.507 415.200 C 50.884 415.640,51.464 416.000,51.796 416.000 C 52.128 416.000,52.400 416.152,52.400 416.337 C 52.400 416.522,53.030 417.013,53.800 417.428 C 54.570 417.843,55.200 418.301,55.200 418.448 C 55.200 418.594,55.665 418.830,56.234 418.973 C 56.803 419.116,57.654 419.592,58.126 420.032 C 58.598 420.471,59.393 420.934,59.892 421.059 C 60.391 421.184,60.800 421.428,60.800 421.600 C 60.800 421.772,61.250 422.026,61.800 422.164 C 62.350 422.302,62.800 422.578,62.800 422.776 C 62.800 422.974,63.340 423.255,64.000 423.400 C 64.660 423.545,65.200 423.829,65.200 424.032 C 65.200 424.234,65.470 424.400,65.800 424.400 C 66.130 424.400,66.400 424.566,66.400 424.768 C 66.400 424.971,66.940 425.255,67.600 425.400 C 68.260 425.545,68.800 425.813,68.800 425.997 C 68.800 426.180,69.520 426.451,70.400 426.600 C 71.280 426.749,72.000 426.992,72.000 427.141 C 72.000 427.424,74.949 428.800,75.557 428.800 C 75.750 428.800,76.424 429.069,77.054 429.398 C 77.684 429.726,78.479 429.996,78.820 429.998 C 79.161 429.999,79.611 430.148,79.820 430.329 C 80.029 430.510,81.280 430.983,82.600 431.379 C 83.920 431.775,85.299 432.249,85.665 432.431 C 86.031 432.614,87.246 432.885,88.365 433.033 C 89.484 433.182,90.400 433.439,90.400 433.605 C 90.400 433.771,91.570 434.032,93.000 434.185 C 94.430 434.338,95.600 434.629,95.600 434.832 C 95.600 435.034,96.374 435.200,97.320 435.200 C 98.266 435.200,99.211 435.362,99.420 435.561 C 101.401 437.444,298.967 437.438,300.980 435.555 C 301.189 435.360,302.044 435.200,302.880 435.200 C 303.716 435.200,304.400 435.034,304.400 434.832 C 304.400 434.629,305.570 434.338,307.000 434.185 C 308.430 434.032,309.600 433.769,309.600 433.599 C 309.600 433.430,310.587 433.169,311.794 433.018 C 313.000 432.867,314.078 432.597,314.189 432.418 C 314.300 432.239,315.198 431.971,316.186 431.823 C 317.173 431.675,318.086 431.384,318.214 431.177 C 318.342 430.970,318.887 430.800,319.424 430.800 C 319.961 430.800,320.400 430.636,320.400 430.435 C 320.400 430.234,321.120 429.949,322.000 429.800 C 322.880 429.651,323.600 429.366,323.600 429.165 C 323.600 428.964,323.869 428.800,324.197 428.800 C 325.031 428.800,328.000 427.477,328.000 427.106 C 328.000 426.938,328.357 426.800,328.794 426.800 C 329.626 426.800,334.503 424.419,334.733 423.900 C 334.807 423.735,335.079 423.600,335.339 423.600 C 335.839 423.600,338.861 422.074,339.200 421.650 C 339.310 421.512,340.075 421.088,340.900 420.706 C 341.725 420.325,342.400 419.830,342.400 419.606 C 342.400 419.383,342.725 419.200,343.121 419.200 C 343.813 419.200,347.257 416.941,347.533 416.306 C 347.607 416.138,347.923 416.000,348.237 416.000 C 348.551 416.000,349.116 415.640,349.493 415.200 C 349.870 414.760,350.375 414.400,350.617 414.400 C 350.858 414.400,351.447 413.950,351.925 413.400 C 352.403 412.850,352.990 412.400,353.228 412.400 C 353.467 412.400,354.193 411.905,354.842 411.300 C 355.491 410.695,356.569 409.750,357.236 409.200 C 357.904 408.650,358.965 407.705,359.594 407.100 C 360.224 406.495,360.842 406.000,360.969 406.000 C 361.271 406.000,369.200 398.071,369.200 397.769 C 369.200 397.642,369.695 397.024,370.300 396.394 C 370.905 395.765,371.850 394.704,372.400 394.036 C 372.950 393.369,373.895 392.291,374.500 391.642 C 375.105 390.993,375.600 390.267,375.600 390.028 C 375.600 389.790,376.050 389.203,376.600 388.725 C 377.150 388.247,377.600 387.658,377.600 387.417 C 377.600 387.175,377.960 386.670,378.400 386.293 C 378.840 385.916,379.200 385.351,379.200 385.037 C 379.200 384.723,379.338 384.407,379.506 384.333 C 380.141 384.057,382.400 380.613,382.400 379.921 C 382.400 379.525,382.583 379.200,382.806 379.200 C 383.030 379.200,383.525 378.525,383.906 377.700 C 384.288 376.875,384.712 376.110,384.850 376.000 C 385.274 375.661,386.800 372.639,386.800 372.139 C 386.800 371.879,386.935 371.607,387.100 371.533 C 387.619 371.303,390.000 366.426,390.000 365.594 C 390.000 365.157,390.138 364.800,390.306 364.800 C 390.677 364.800,392.000 361.831,392.000 360.997 C 392.000 360.669,392.160 360.400,392.355 360.400 C 392.551 360.400,392.833 359.748,392.983 358.951 C 393.132 358.154,393.422 357.164,393.627 356.751 C 393.832 356.338,394.168 355.662,394.373 355.249 C 394.578 354.836,394.871 353.801,395.025 352.949 C 395.179 352.097,395.449 351.216,395.626 350.990 C 395.804 350.765,396.073 349.640,396.226 348.490 C 396.378 347.341,396.639 346.400,396.805 346.400 C 396.971 346.400,397.232 345.230,397.385 343.800 C 397.538 342.370,397.811 341.200,397.992 341.200 C 398.172 341.200,398.419 340.435,398.541 339.500 C 398.663 338.565,398.977 336.720,399.239 335.400 C 400.577 328.657,400.114 99.767,398.760 99.267 C 398.562 99.193,398.400 98.338,398.400 97.367 C 398.400 96.395,398.234 95.600,398.032 95.600 C 397.829 95.600,397.538 94.430,397.385 93.000 C 397.232 91.570,396.971 90.400,396.805 90.400 C 396.639 90.400,396.382 89.484,396.233 88.365 C 396.085 87.246,395.817 86.031,395.638 85.665 C 395.094 84.552,394.000 80.934,394.000 80.246 C 394.000 79.891,393.820 79.600,393.600 79.600 C 393.380 79.600,393.199 79.285,393.198 78.900 C 393.196 78.515,392.926 77.684,392.598 77.054 C 392.269 76.424,392.000 75.750,392.000 75.557 C 392.000 74.949,390.624 72.000,390.341 72.000 C 390.192 72.000,389.949 71.280,389.800 70.400 C 389.651 69.520,389.380 68.800,389.197 68.800 C 389.013 68.800,388.745 68.260,388.600 67.600 C 388.455 66.940,388.171 66.400,387.968 66.400 C 387.766 66.400,387.600 66.130,387.600 65.800 C 387.600 65.470,387.434 65.200,387.232 65.200 C 387.029 65.200,386.745 64.660,386.600 64.000 C 386.455 63.340,386.174 62.800,385.976 62.800 C 385.778 62.800,385.502 62.350,385.364 61.800 C 385.226 61.250,384.972 60.800,384.800 60.800 C 384.628 60.800,384.384 60.391,384.259 59.892 C 384.134 59.393,383.671 58.598,383.232 58.126 C 382.792 57.654,382.316 56.803,382.173 56.234 C 382.030 55.665,381.794 55.200,381.648 55.200 C 381.501 55.200,381.043 54.570,380.628 53.800 C 380.213 53.030,379.722 52.400,379.537 52.400 C 379.352 52.400,379.200 52.128,379.200 51.796 C 379.200 51.464,378.840 50.884,378.400 50.507 C 377.960 50.130,377.600 49.674,377.600 49.493 C 377.600 49.312,377.150 48.714,376.600 48.164 C 376.050 47.614,375.600 46.999,375.600 46.798 C 375.600 46.450,375.271 46.044,372.360 42.800 C 371.669 42.030,370.630 40.776,370.052 40.013 C 368.779 38.335,361.435 30.994,359.634 29.600 C 358.176 28.472,356.796 27.296,354.911 25.576 C 354.202 24.929,353.436 24.400,353.208 24.400 C 352.981 24.400,352.403 23.950,351.925 23.400 C 351.447 22.850,350.858 22.400,350.617 22.400 C 350.375 22.400,349.870 22.040,349.493 21.600 C 349.116 21.160,348.536 20.800,348.204 20.800 C 347.872 20.800,347.600 20.632,347.600 20.427 C 347.600 20.222,347.234 19.938,346.787 19.796 C 346.340 19.654,345.504 19.102,344.929 18.569 C 344.354 18.036,343.549 17.600,343.142 17.600 C 342.734 17.600,342.400 17.428,342.400 17.219 C 342.400 17.009,341.725 16.521,340.900 16.134 C 340.075 15.747,339.162 15.199,338.871 14.915 C 338.581 14.632,338.086 14.400,337.771 14.400 C 337.457 14.400,337.200 14.234,337.200 14.032 C 337.200 13.829,336.660 13.545,336.000 13.400 C 335.340 13.255,334.800 13.011,334.800 12.858 C 334.800 12.705,333.992 12.224,333.004 11.790 C 332.016 11.355,331.206 10.867,331.204 10.705 C 331.202 10.542,330.480 10.294,329.600 10.154 C 328.720 10.013,328.000 9.749,328.000 9.567 C 328.000 9.385,327.370 9.118,326.600 8.974 C 325.830 8.829,325.200 8.551,325.200 8.355 C 325.200 8.160,324.951 8.000,324.646 8.000 C 324.341 8.000,323.576 7.731,322.946 7.402 C 322.316 7.074,321.485 6.804,321.100 6.802 C 320.715 6.801,320.400 6.637,320.400 6.438 C 320.400 6.238,319.500 5.951,318.400 5.800 C 317.300 5.649,316.400 5.382,316.400 5.208 C 316.400 5.033,315.905 4.789,315.300 4.664 C 311.979 3.978,309.777 3.398,309.600 3.162 C 309.490 3.016,308.275 2.767,306.900 2.609 C 305.525 2.451,304.400 2.177,304.400 2.001 C 304.400 1.825,303.635 1.581,302.700 1.459 C 301.765 1.337,299.920 1.024,298.600 0.763 C 295.694 0.188,111.175 -0.112,104.400 0.447 M70.251 47.566 C 70.938 47.985,72.648 48.950,74.051 49.710 C 75.453 50.469,77.320 51.501,78.200 52.002 C 80.304 53.200,102.939 65.876,105.000 67.010 C 107.099 68.166,128.852 80.331,135.000 83.788 C 137.640 85.272,140.970 87.123,142.400 87.902 C 143.830 88.680,146.045 89.920,147.321 90.658 C 148.598 91.396,149.721 92.000,149.815 92.000 C 149.910 92.000,150.891 92.555,151.994 93.234 L 154.000 94.469 154.000 141.811 C 154.000 167.849,154.146 189.243,154.324 189.353 C 154.610 189.530,157.343 188.111,164.200 184.226 C 166.781 182.764,170.032 180.972,172.800 179.486 C 174.010 178.837,175.180 178.171,175.400 178.006 C 175.801 177.706,176.381 177.381,183.800 173.288 C 186.000 172.074,190.447 169.578,193.682 167.740 C 196.917 165.903,199.639 164.400,199.731 164.400 C 199.824 164.400,201.924 163.230,204.400 161.800 C 206.876 160.370,208.946 159.200,209.000 159.200 C 209.054 159.200,212.497 157.291,216.649 154.959 C 223.213 151.272,231.283 146.747,236.600 143.773 L 238.200 142.878 238.302 95.157 C 238.358 68.911,238.557 47.283,238.744 47.096 C 238.932 46.908,240.663 47.663,242.600 48.777 C 244.533 49.890,246.165 50.800,246.226 50.800 C 246.287 50.800,248.051 51.790,250.147 53.000 C 252.243 54.210,254.054 55.200,254.172 55.200 C 254.290 55.200,255.562 55.920,257.000 56.800 C 258.438 57.680,259.676 58.400,259.752 58.400 C 259.922 58.400,262.276 59.705,277.400 68.188 C 289.644 75.055,290.519 75.540,295.400 78.181 C 296.940 79.014,299.190 80.282,300.400 80.998 C 302.221 82.076,308.569 85.647,322.000 93.147 C 322.990 93.700,323.905 94.306,324.034 94.493 C 324.470 95.127,324.800 237.514,324.533 309.744 L 324.267 381.588 322.034 380.357 C 320.805 379.679,318.630 378.490,317.200 377.714 C 315.770 376.939,313.610 375.717,312.400 375.000 C 311.190 374.283,309.030 373.063,307.600 372.289 C 303.550 370.096,295.151 365.397,293.600 364.456 C 292.830 363.989,291.930 363.486,291.600 363.337 C 291.270 363.189,289.602 362.282,287.894 361.323 C 286.186 360.363,283.936 359.105,282.894 358.527 C 281.852 357.949,279.020 356.360,276.600 354.995 C 274.180 353.631,271.120 351.919,269.800 351.192 C 268.480 350.464,266.770 349.515,266.000 349.082 C 263.376 347.606,257.805 344.507,255.800 343.407 C 254.700 342.804,252.450 341.543,250.800 340.605 C 249.150 339.667,245.961 337.881,243.714 336.635 C 241.466 335.390,239.351 334.094,239.014 333.757 C 238.469 333.212,238.400 327.860,238.400 286.171 C 238.400 260.337,238.290 239.200,238.155 239.200 C 238.020 239.200,236.313 240.100,234.362 241.200 C 232.410 242.300,230.739 243.200,230.648 243.200 C 230.556 243.200,229.338 243.889,227.941 244.731 C 226.543 245.573,224.050 246.990,222.400 247.880 C 220.750 248.771,218.770 249.880,218.000 250.346 C 217.230 250.812,216.330 251.314,216.000 251.463 C 215.471 251.701,213.568 252.754,207.800 256.003 C 202.111 259.208,195.030 263.153,190.600 265.587 C 189.280 266.313,188.020 267.036,187.800 267.195 C 187.580 267.354,186.230 268.118,184.800 268.894 C 181.501 270.683,179.408 271.842,173.200 275.315 C 170.450 276.854,166.130 279.267,163.600 280.677 C 161.070 282.088,158.730 283.417,158.400 283.631 C 158.070 283.845,157.054 284.375,156.143 284.810 C 153.837 285.908,154.000 282.175,154.000 334.033 C 154.000 364.224,153.860 381.200,153.612 381.200 C 153.399 381.200,152.634 380.869,151.912 380.465 C 151.190 380.061,149.520 379.137,148.200 378.412 C 143.836 376.014,128.698 367.536,122.718 364.140 C 119.483 362.303,116.751 360.800,116.647 360.800 C 116.543 360.800,115.409 360.187,114.129 359.437 C 110.609 357.377,86.012 343.600,85.853 343.600 C 85.777 343.600,84.195 342.725,82.337 341.656 C 80.479 340.587,77.888 339.124,76.579 338.404 C 70.166 334.878,69.249 334.339,68.893 333.887 C 68.039 332.804,67.914 46.796,68.766 46.801 C 68.895 46.802,69.563 47.146,70.251 47.566 " stroke="none" fill="#64b4b4" fill-rule="evenodd"></path><path id="path4" d="M68.265 118.552 C 67.949 203.342,68.328 333.170,68.893 333.887 C 69.249 334.339,70.166 334.878,76.579 338.404 C 77.888 339.124,80.479 340.587,82.337 341.656 C 84.195 342.725,85.777 343.600,85.853 343.600 C 86.012 343.600,110.609 357.377,114.129 359.437 C 115.409 360.187,116.541 360.800,116.643 360.800 C 116.855 360.800,122.945 364.225,124.300 365.107 C 124.795 365.429,125.200 365.532,125.200 365.337 C 125.200 365.142,124.525 364.630,123.700 364.199 C 122.875 363.768,121.072 362.737,119.693 361.908 C 118.314 361.079,117.091 360.400,116.975 360.400 C 116.859 360.400,114.117 358.895,110.882 357.055 C 107.647 355.215,103.560 352.942,101.800 352.004 C 100.040 351.067,98.420 350.166,98.200 350.003 C 97.797 349.705,95.988 348.694,91.200 346.091 C 89.770 345.313,88.122 344.345,87.538 343.938 C 86.954 343.532,86.361 343.200,86.220 343.200 C 86.079 343.200,83.280 341.670,80.000 339.800 C 76.720 337.930,73.951 336.400,73.847 336.400 C 73.743 336.400,72.594 335.767,71.295 334.993 L 68.933 333.585 68.666 261.993 C 68.519 222.617,68.519 158.200,68.666 118.844 L 68.932 47.289 70.886 48.491 C 71.961 49.152,72.932 49.602,73.044 49.490 C 73.224 49.310,69.187 46.800,68.718 46.800 C 68.616 46.800,68.412 79.088,68.265 118.552 M238.667 47.067 C 238.520 47.213,238.400 68.791,238.400 95.018 C 238.400 139.988,238.360 142.734,237.699 143.251 C 237.063 143.749,237.072 143.758,237.799 143.351 C 238.593 142.907,238.601 142.457,238.702 95.051 C 238.764 65.637,238.948 47.200,239.178 47.200 C 239.384 47.200,239.657 47.369,239.784 47.575 C 239.912 47.781,240.507 48.202,241.108 48.510 C 244.048 50.020,249.568 53.046,250.938 53.900 C 251.784 54.427,252.558 54.775,252.658 54.675 C 252.759 54.574,251.617 53.810,250.121 52.977 C 248.624 52.143,246.804 51.130,246.076 50.724 C 245.348 50.319,243.487 49.270,241.940 48.393 C 238.797 46.612,239.028 46.706,238.667 47.067 M73.600 49.775 C 73.600 49.929,77.590 52.246,82.800 55.116 C 83.790 55.661,84.780 56.238,85.000 56.399 C 85.220 56.559,86.930 57.503,88.800 58.497 C 90.670 59.491,92.830 60.674,93.600 61.126 C 95.157 62.039,96.646 62.866,100.200 64.793 C 101.520 65.508,103.078 66.433,103.662 66.847 C 104.246 67.261,104.837 67.600,104.976 67.600 C 105.114 67.600,106.617 68.388,108.314 69.351 C 113.818 72.473,114.562 72.889,117.200 74.305 C 118.630 75.073,119.980 75.834,120.200 75.997 C 120.420 76.160,121.500 76.791,122.600 77.400 C 126.510 79.564,129.023 80.947,130.684 81.847 C 131.609 82.349,132.830 83.063,133.396 83.434 C 133.962 83.805,134.518 84.016,134.631 83.903 C 134.744 83.789,133.793 83.107,132.518 82.387 C 129.667 80.775,107.208 68.226,105.000 67.010 C 104.120 66.526,98.090 63.156,91.600 59.521 C 85.110 55.886,78.900 52.410,77.800 51.797 C 76.700 51.184,75.445 50.439,75.011 50.141 C 74.227 49.603,73.600 49.440,73.600 49.775 M253.200 54.975 C 253.200 55.131,255.348 56.422,258.400 58.100 C 262.280 60.233,264.699 61.578,267.000 62.881 C 268.320 63.629,269.670 64.368,270.000 64.524 C 270.330 64.679,271.230 65.189,272.000 65.657 C 272.770 66.124,274.390 67.053,275.600 67.721 C 276.810 68.389,278.520 69.345,279.400 69.845 C 280.280 70.345,281.450 71.001,282.000 71.303 C 288.608 74.929,301.382 82.085,301.800 82.394 C 302.020 82.557,303.730 83.503,305.600 84.497 C 307.470 85.491,309.630 86.676,310.400 87.131 C 311.170 87.585,312.250 88.203,312.800 88.504 C 316.352 90.448,318.705 91.788,319.389 92.258 C 320.281 92.871,321.184 93.011,320.580 92.443 C 320.371 92.247,316.240 89.884,311.400 87.193 C 306.560 84.502,301.610 81.714,300.400 80.998 C 299.190 80.282,296.940 79.014,295.400 78.181 C 290.519 75.540,289.644 75.055,277.400 68.188 C 262.276 59.705,259.922 58.400,259.752 58.400 C 259.676 58.400,258.486 57.713,257.107 56.874 C 254.658 55.383,253.200 54.675,253.200 54.975 M135.200 84.276 C 135.200 84.468,135.695 84.833,136.300 85.087 C 136.905 85.341,138.390 86.125,139.600 86.827 C 141.780 88.094,143.984 89.322,150.320 92.800 L 153.599 94.600 153.600 142.076 C 153.600 189.725,153.634 190.941,154.935 189.617 C 155.290 189.255,155.258 189.173,154.800 189.271 C 154.270 189.385,154.188 183.881,154.098 141.933 L 153.997 94.467 151.992 93.233 C 150.890 92.555,149.910 92.000,149.815 92.000 C 149.721 92.000,148.598 91.396,147.321 90.658 C 146.045 89.920,144.010 88.776,142.800 88.116 C 141.590 87.456,139.385 86.243,137.900 85.421 C 136.415 84.599,135.200 84.084,135.200 84.276 M321.209 93.090 C 321.213 93.260,321.798 93.670,322.509 94.000 L 323.800 94.600 324.002 142.200 L 324.205 189.800 324.296 142.400 C 324.347 116.330,324.256 94.800,324.094 94.556 C 323.704 93.966,321.198 92.693,321.209 93.090 M232.304 146.142 C 229.200 147.923,228.796 148.471,231.800 146.826 C 233.987 145.629,235.241 144.781,234.780 144.812 C 234.681 144.819,233.567 145.417,232.304 146.142 M213.400 156.800 C 212.740 157.237,212.380 157.592,212.600 157.588 C 213.001 157.582,215.176 156.023,214.800 156.012 C 214.690 156.008,214.060 156.363,213.400 156.800 M203.900 162.027 C 203.075 162.463,202.400 162.908,202.400 163.018 C 202.400 163.127,203.120 162.849,204.000 162.400 C 204.880 161.951,205.600 161.497,205.600 161.392 C 205.600 161.130,205.597 161.131,203.900 162.027 M196.132 166.322 C 192.064 168.660,191.203 169.465,195.000 167.380 C 198.925 165.225,200.264 164.400,199.800 164.423 C 199.580 164.434,197.929 165.288,196.132 166.322 M186.700 171.627 C 185.875 172.063,185.200 172.508,185.200 172.618 C 185.200 172.727,185.920 172.449,186.800 172.000 C 187.680 171.551,188.400 171.097,188.400 170.992 C 188.400 170.730,188.397 170.731,186.700 171.627 M182.700 173.826 C 181.655 174.370,180.800 174.905,180.800 175.014 C 180.800 175.124,181.700 174.757,182.800 174.200 C 183.900 173.643,184.800 173.100,184.800 172.993 C 184.800 172.729,184.836 172.714,182.700 173.826 M167.096 182.550 C 164.806 183.958,164.737 184.291,167.000 183.013 C 169.302 181.713,169.466 181.595,168.967 181.612 C 168.765 181.619,167.923 182.041,167.096 182.550 M163.097 184.766 C 161.285 185.928,161.286 186.156,163.100 185.241 C 164.035 184.770,164.800 184.297,164.800 184.192 C 164.800 183.849,164.223 184.044,163.097 184.766 M159.500 186.827 C 158.675 187.263,158.000 187.708,158.000 187.818 C 158.000 187.927,158.720 187.649,159.600 187.200 C 160.480 186.751,161.200 186.297,161.200 186.192 C 161.200 185.930,161.197 185.931,159.500 186.827 M324.594 238.000 C 324.594 264.290,324.641 275.045,324.700 261.900 C 324.758 248.755,324.758 227.245,324.700 214.100 C 324.641 200.955,324.594 211.710,324.594 238.000 M211.000 232.000 C 210.708 232.472,211.087 233.200,211.624 233.200 C 211.831 233.200,212.000 232.840,212.000 232.400 C 212.000 231.556,211.418 231.324,211.000 232.000 M235.504 240.142 C 232.253 242.007,232.059 242.433,235.265 240.668 C 236.731 239.860,238.036 239.200,238.165 239.200 C 238.294 239.200,238.403 260.305,238.406 286.100 C 238.409 311.895,238.544 333.198,238.706 333.440 C 239.096 334.024,241.409 335.443,245.800 337.791 C 247.780 338.850,249.130 339.445,248.800 339.113 C 248.470 338.781,246.782 337.752,245.049 336.826 C 240.613 334.457,240.285 334.268,239.500 333.638 C 238.840 333.109,238.800 330.351,238.800 285.938 C 238.800 248.488,238.697 238.802,238.300 238.812 C 238.025 238.819,236.767 239.417,235.504 240.142 M227.500 244.629 C 226.005 245.440,226.096 245.778,227.600 245.000 C 228.260 244.659,228.800 244.294,228.800 244.190 C 228.800 243.932,228.757 243.947,227.500 244.629 M224.300 246.427 C 223.475 246.863,222.800 247.308,222.800 247.418 C 222.800 247.527,223.520 247.249,224.400 246.800 C 225.280 246.351,226.000 245.897,226.000 245.792 C 226.000 245.530,225.997 245.531,224.300 246.427 M209.000 254.990 C 208.120 255.532,207.525 255.981,207.677 255.988 C 208.024 256.003,210.800 254.379,210.800 254.160 C 210.800 253.900,210.676 253.957,209.000 254.990 M201.700 259.031 C 199.885 260.030,198.400 260.939,198.400 261.052 C 198.400 261.276,204.367 258.093,204.980 257.542 C 205.694 256.900,205.000 257.215,201.700 259.031 M196.700 261.829 C 195.205 262.640,195.296 262.978,196.800 262.200 C 197.460 261.859,198.000 261.494,198.000 261.390 C 198.000 261.132,197.957 261.147,196.700 261.829 M185.900 267.877 C 184.856 268.458,184.063 268.997,184.140 269.073 C 184.300 269.234,188.000 267.214,188.000 266.966 C 188.000 266.715,187.943 266.740,185.900 267.877 M170.296 276.550 C 168.006 277.958,167.937 278.291,170.200 277.013 C 172.502 275.713,172.666 275.595,172.167 275.612 C 171.965 275.619,171.123 276.041,170.296 276.550 M162.700 280.827 C 161.875 281.263,161.200 281.708,161.200 281.818 C 161.200 281.927,161.920 281.649,162.800 281.200 C 163.680 280.751,164.400 280.297,164.400 280.192 C 164.400 279.930,164.397 279.931,162.700 280.827 M156.600 284.231 C 155.720 284.757,155.180 285.189,155.400 285.192 C 155.881 285.198,158.400 283.698,158.400 283.406 C 158.400 283.144,158.483 283.107,156.600 284.231 M153.867 285.867 C 153.720 286.013,153.600 307.433,153.600 333.467 C 153.600 359.500,153.534 380.800,153.454 380.800 C 153.374 380.800,150.899 379.430,147.954 377.755 C 145.009 376.081,142.240 374.548,141.800 374.350 C 141.360 374.152,140.370 373.608,139.600 373.142 C 138.830 372.675,137.210 371.747,136.000 371.079 C 134.790 370.411,133.146 369.490,132.347 369.032 C 127.799 366.428,126.203 365.599,125.918 365.694 C 125.743 365.752,129.775 368.140,134.877 371.000 C 143.399 375.777,145.374 376.872,151.492 380.208 C 152.643 380.835,153.676 381.258,153.787 381.146 C 153.942 380.991,154.321 285.600,154.167 285.600 C 154.148 285.600,154.013 285.720,153.867 285.867 M324.000 333.400 C 324.000 359.470,323.937 380.800,323.860 380.800 C 323.645 380.800,320.450 379.062,318.082 377.657 C 316.918 376.966,315.879 376.400,315.774 376.400 C 315.670 376.400,314.913 375.981,314.092 375.469 C 313.271 374.957,310.980 373.673,309.000 372.616 C 307.020 371.559,305.220 370.557,305.000 370.390 C 304.780 370.222,303.610 369.550,302.400 368.897 C 301.190 368.243,299.480 367.300,298.600 366.801 C 290.337 362.114,280.771 356.800,280.598 356.800 C 280.480 356.800,279.663 356.324,278.783 355.741 C 277.904 355.159,277.088 354.779,276.971 354.895 C 276.854 355.012,277.983 355.790,279.479 356.623 C 280.976 357.457,282.830 358.489,283.600 358.918 C 284.370 359.347,286.350 360.456,288.000 361.383 C 289.650 362.310,291.270 363.189,291.600 363.337 C 291.930 363.486,292.830 363.989,293.600 364.456 C 295.151 365.397,303.550 370.096,307.600 372.289 C 309.030 373.063,311.190 374.283,312.400 375.000 C 313.610 375.717,315.770 376.939,317.200 377.714 C 318.630 378.490,320.835 379.695,322.100 380.392 L 324.400 381.660 324.400 333.830 C 324.400 307.524,324.310 286.000,324.200 286.000 C 324.090 286.000,324.000 307.330,324.000 333.400 M249.600 339.771 C 249.600 339.932,251.279 340.916,255.800 343.404 C 257.651 344.422,261.746 346.701,266.600 349.414 C 267.700 350.029,269.140 350.831,269.800 351.197 C 270.460 351.562,272.215 352.538,273.700 353.365 C 275.185 354.192,276.400 354.691,276.400 354.474 C 276.400 354.256,275.905 353.888,275.300 353.655 C 274.695 353.422,272.940 352.507,271.400 351.622 C 269.860 350.736,266.080 348.623,263.000 346.926 C 259.920 345.228,257.340 343.696,257.267 343.520 C 257.193 343.344,256.962 343.200,256.753 343.200 C 256.543 343.200,254.945 342.390,253.200 341.400 C 250.114 339.649,249.600 339.416,249.600 339.771 " stroke="none" fill="#7bcccc" fill-rule="evenodd"></path></g></svg>